<?xml version="1.0" encoding="utf-8"?>
<!-- Generator: Adobe Illustrator 16.0.4, SVG Export Plug-In . SVG Version: 6.00 Build 0)  -->
<!DOCTYPE svg PUBLIC "-//W3C//DTD SVG 1.1//EN" "http://www.w3.org/Graphics/SVG/1.1/DTD/svg11.dtd">
<svg version="1.1" id="Ebene_1" xmlns="http://www.w3.org/2000/svg" xmlns:xlink="http://www.w3.org/1999/xlink" x="0px" y="0px"
	 width="1482.219px" height="1000px" viewBox="0 0 1482.219 1000" enable-background="new 0 0 1482.219 1000" xml:space="preserve">
<g id="Ebene_1_1_" display="none">
	<path display="inline" fill="#489BD5" stroke="#F5F5F5" stroke-width="40" stroke-miterlimit="10" d="M1198.1,678.645
		c-3.479-11.025-72.598-227.894-136.552-269.768c-0.203-0.271-0.405-0.546-0.612-0.802c-18.067-22.217-54.729-35.824-95.578-40.838
		c-1.045-4.748-2.684-8.63-4.965-10.745c-1.859-1.726-4.205-3.24-6.896-4.562c0.003-0.041,0.006-0.08,0.008-0.121
		c36.723-39.124,67.541-127.961,63.088-187.536c-1.222-16.344-4.889-29.706-10.361-40.601c0.066-1.215,0.07-2.45-0.014-3.714
		c-1.652-25.371-13.021-38.877-30.91-45.644c-15.152-18.638-47.624-31.345-82.704-29.053c-37.004,2.416-65.922,20.8-75.777,42.672
		c-13.468,9.271-21.062,23.464-19.609,45.67c0.166,2.544,0.632,4.948,1.37,7.219c-2.911,10.259-4.102,22.182-3.062,36.057
		c3.205,42.908,26.104,99.075,54.188,140.044c-1.261,0.675-2.56,1.314-3.896,1.892c-3.008,1.293-5.979,1.99-8.838,2.072
		c-10.912,0.314-17.149-8.476-17.217-8.563l-2.057,1.247c6.309,12,21.385,16.999,30.145,16.745
		c1.396-0.041,6.106,0.383,12.015,0.445c7.17,9.104,14.549,17.076,21.922,23.503c-1.034,0.703-2,1.439-2.853,2.228
		c-2.754,2.554-4.574,7.67-5.537,13.791c-32.92,6.519-61.259,19.111-76.448,37.792c-22.34,27.469-17.562,140.967-8.207,241.104
		l-354.394-45.882l54.211,288.35l381.396,62.204l139.196-103.732c-1.062,3.491-1.646,6.868-1.646,10.045
		c0,28.216,33.431,30.006,63.525,30.006c30.096-0.002,54.489-22.875,54.489-51.088c0-3.146-0.164-6.213-0.479-9.197
		c3.776-3.562,5.916-6.071,5.916-6.071L1198.1,678.645z M1058.916,790.071c4.574-37.48,15.095-130.188,18.531-215.626
		l55.771,108.627L1058.916,790.071z"/>
</g>
<path fill="#3880A8" d="M1046.778,852.009c0,0-33.005,46.755-116.854,46.755c-80.219,0-111.363-39.827-111.363-39.827
	s-22.362-284.349-24.272-398.131c48.664-59.836,226.619-59.836,275.286,0C1030.186,535.59,1046.778,852.009,1046.778,852.009z"/>
<path fill="#3880A8" d="M1198.225,719.612l-33.863,2.625L1005.67,465.285c0,0,46.729-13.553,63.903-4.48
	C1106.682,531.09,1198.225,719.612,1198.225,719.612z"/>
<path fill="#3880A8" d="M1087.183,838.573c0,0-54.277,59.114-11.254,56.479c30.657-1.876,55.026-30.527,55.026-30.527l67.27-144.91
	l-51.396-26.331l12.353,23.799L1087.183,838.573z"/>
<path fill="#64BEEF" d="M951.784,426.649c-8.203,16.851-52.122,18.725-63.313,0c-0.658-15.149-0.829-38.817-7.5-59.41
	c12.312-16.646,65.005-17.396,77.313-0.75C948.775,387.084,950.896,396.168,951.784,426.649z"/>
<path fill="#43A2E3" d="M881.562,366.489l-0.592,0.746c14.487,18.977,67.426,16.826,77.313-0.745
	C946.162,350.098,894.881,350.575,881.562,366.489z"/>
<polygon fill="#E8C669" points="914.678,474.499 913.486,474.499 907.35,372.135 920.812,372.135 "/>
<polygon fill="#D1D1D1" points="907.447,1000 526.054,937.796 700.184,810.046 1087.602,866.226 "/>
<g>
	<polygon fill="#BDBDBD" points="580.317,923.299 705.71,832.489 1032.723,879.911 902.027,975.77 	"/>
</g>
<polygon opacity="0.2" fill="#43A2E3" enable-background="new    " points="907.447,1000 546.054,917.796 866.693,786.076 
	971.688,817.574 "/>
<polygon fill="#D1D1D1" points="907.447,1000 526.054,937.796 455.573,562.908 883.193,567.088 "/>
<g>
	<polygon fill="#FFFFFF" points="606.099,740.38 614.532,795.093 668.56,768.994 	"/>
	<polygon fill="#FFFFFF" points="748.491,797.98 740.053,743.246 686.029,769.359 	"/>
	<polygon fill="#FFFFFF" points="676.07,760.441 731.793,730.562 666.442,698.07 610.486,727.945 	"/>
	<polygon fill="#FFFFFF" points="688.308,839.822 744.031,809.943 678.681,777.451 622.724,807.326 	"/>
</g>
<path fill="#64BEEF" d="M932.164,550.878c28.444,2.622,57.444,7.622,82.444-6.378c3-1,1-11,1-17c-28,3-56,2-83.896,2.457
	L932.164,550.878z"/>
<path fill="#64BEEF" d="M1130.116,868.584c-5.508-26.084-27.508-44.084-54.508-38.084c15-16,38-20,54-2c5,6,9,12,11,20c0,3,1,6,0,8
	c-2,5-8,6-9.812,10.686C1130.379,868.047,1130.116,868.584,1130.116,868.584z"/>
<circle fill="#FFFFFF" cx="971.688" cy="540.718" r="4.256"/>
<polygon opacity="0.3" fill="#64BEEF" enable-background="new    " points="931.93,556.5 938.275,621.166 978.942,643.166 
	1018.942,620.5 1016.263,553.933 "/>
<path fill="#F4DA73" d="M1129.252,881.798c0.623-28.207-11.218-51.349-41.302-52.015c-30.083-0.666-76.525,42.271-77.15,70.479
	c-0.624,28.208,32.758,30.737,62.849,31.403C1103.733,932.331,1128.628,910.003,1129.252,881.798z"/>
<path fill="#E8C669" d="M945.007,376.335c4.116-10.04,2.2-52.529-2.905-58.859c-9.494-11.772-39.325-11.772-48.817,0
	c-5.175,6.419-2.647,50.034,1.944,59.268C910.115,382.148,931.036,381.709,945.007,376.335z"/>
<path fill="#F4DA73" d="M796.679,153.151c5.548,87.657,72.521,219.17,119.438,215.556c46.917-3.613,98.451-142.188,92.897-229.846
	c-5.548-87.66-63.541-99.866-110.459-96.253C851.639,46.224,791.129,65.491,796.679,153.151z"/>
<path opacity="0.3" fill="#DDC885" enable-background="new    " d="M806.148,207.875c2.161-0.57,4.342-1.123,6.539-1.656
	C782.276,83.167,1005.67,82.5,992.878,196.709c-0.362,3.23,0.307,6.589,0.331,10c3.607,0.899,7.17,1.848,10.674,2.849
	c4.471-24.989,6.477-49.48,5.132-70.697c-5.548-87.66-63.541-99.866-110.459-96.253C851.639,46.223,791.129,65.49,796.679,153.15
	C797.746,170.03,801.106,188.723,806.148,207.875z"/>
<path fill="#040504" d="M800.835,308.09l2.329-1.414c0.072,0.1,7.147,10.062,19.518,9.706c3.235-0.095,6.607-0.884,10.02-2.35
	c6.596-2.837,12.315-6.925,17.363-10.534c6.789-4.852,12.648-9.04,18.868-9.218c14.089-0.407,20.259,10.047,17.557,19.384
	C881.207,331.898,815.732,331.644,800.835,308.09z"/>
<path fill="#040504" d="M981.224,303.056l-2.409-1.275c-0.062,0.104-6.547,10.459-18.916,10.813
	c-3.237,0.095-6.648-0.501-10.14-1.769c-6.748-2.449-12.698-6.202-17.94-9.514c-7.058-4.452-13.15-8.295-19.37-8.114
	c-14.089,0.405-19.648,11.198-16.409,20.364C902.364,331.463,966.714,326.624,981.224,303.056z"/>
<path fill="#F4DA73" d="M912.526,261.812c0,11.85-10.909,23.403-24.367,23.403s-24.367-11.554-24.367-23.403H912.526z"/>
<ellipse fill="#040504" cx="847.061" cy="200.884" rx="8.156" ry="9.624"/>
<ellipse fill="#040504" cx="940.038" cy="200.883" rx="8.152" ry="9.621"/>
<path fill="#F4DA73" d="M1008.556,247.511c-8.06,0.312-14.74-3-15.091-11.688c-0.354-8.684,11.674-22.297,19.73-22.608
	c8.062-0.312,8.964,9.318,9.314,18.005C1022.863,239.905,1016.613,247.199,1008.556,247.511z"/>
<path fill="#F4DA73" d="M805.088,252.838c8.063-0.108,14.562-3.768,14.457-12.46c-0.104-8.69-12.823-21.655-20.888-21.545
	s-8.464,9.774-8.359,18.467C790.401,245.992,797.023,252.949,805.088,252.838z"/>
<path fill="#E56373" d="M798.302,104.1c1.98,35.81,47.749,47.342,103.185,43.071c55.438-4.271,99.548-22.729,97.562-58.54
	c-3.316-59.984-47.188-61.479-103.957-57.105C840.993,35.694,794.982,44.115,798.302,104.1z"/>
<path fill="#EB6874" d="M813.698,73.452c1.825,33.041,39.354,44.045,84.702,40.554c45.353-3.493,81.343-20.161,79.517-53.202
	c-1.827-33.04-42.643-60.333-87.989-56.839C844.579,7.46,811.869,40.413,813.698,73.452z"/>
</svg>
