<?xml version="1.0" encoding="utf-8"?>
<!-- Generator: Adobe Illustrator 17.0.2, SVG Export Plug-In . SVG Version: 6.00 Build 0)  -->
<!DOCTYPE svg PUBLIC "-//W3C//DTD SVG 1.1//EN" "http://www.w3.org/Graphics/SVG/1.1/DTD/svg11.dtd">
<svg version="1.1" id="Ebene_1" xmlns="http://www.w3.org/2000/svg" xmlns:xlink="http://www.w3.org/1999/xlink" x="0px" y="0px"
	 width="1482.219px" height="1000px" viewBox="0 0 1482.219 1000" enable-background="new 0 0 1482.219 1000" xml:space="preserve">
<ellipse fill="#67C4F9" cx="740.609" cy="562.167" rx="3" ry="7.333"/>
<g id="Ebene_1_1_" display="none">
	<path display="inline" fill="#489BD5" stroke="#F5F5F5" stroke-width="40" stroke-miterlimit="10" d="M1198.1,678.645
		c-3.479-11.025-72.598-227.894-136.552-269.768c-0.203-0.271-0.405-0.546-0.612-0.802c-18.067-22.217-54.729-35.824-95.578-40.838
		c-1.045-4.748-2.684-8.63-4.965-10.745c-1.859-1.726-4.205-3.24-6.896-4.562c0.003-0.041,0.006-0.08,0.008-0.121
		c36.723-39.124,67.541-127.961,63.088-187.536c-1.222-16.344-4.889-29.706-10.361-40.601c0.066-1.215,0.07-2.45-0.014-3.714
		c-1.652-25.371-13.021-38.877-30.91-45.644c-15.152-18.638-47.624-31.345-82.704-29.053c-37.004,2.416-65.922,20.8-75.777,42.672
		c-13.468,9.271-21.062,23.464-19.609,45.67c0.166,2.544,0.632,4.948,1.37,7.219c-2.911,10.259-4.102,22.182-3.062,36.057
		c3.205,42.908,26.104,99.075,54.188,140.044c-1.261,0.675-2.56,1.314-3.896,1.892c-3.008,1.293-5.979,1.99-8.838,2.072
		c-10.912,0.314-17.149-8.476-17.217-8.563l-2.057,1.247c6.309,12,21.385,16.999,30.145,16.745
		c1.396-0.041,6.106,0.383,12.015,0.445c7.17,9.104,14.549,17.076,21.922,23.503c-1.034,0.703-2,1.439-2.853,2.228
		c-2.754,2.554-4.574,7.67-5.537,13.791c-32.92,6.519-61.259,19.111-76.448,37.792c-22.34,27.469-17.562,140.967-8.207,241.104
		l-354.394-45.882l54.211,288.35l381.396,62.204l139.196-103.732c-1.062,3.491-1.646,6.868-1.646,10.045
		c0,28.216,33.431,30.006,63.525,30.006c30.096-0.002,54.489-22.875,54.489-51.088c0-3.146-0.164-6.213-0.479-9.197
		c3.776-3.562,5.916-6.071,5.916-6.071L1198.1,678.645z M1058.916,790.071c4.574-37.48,15.095-130.188,18.531-215.626
		l55.771,108.627L1058.916,790.071z"/>
</g>
<path fill="#EB6874" d="M1046.778,852.009c0,0-33.005,46.755-116.854,46.755c-80.219,0-111.363-39.827-111.363-39.827
	s-22.362-284.349-24.272-398.131c48.664-59.836,226.619-59.836,275.286,0C1030.186,535.59,1046.778,852.009,1046.778,852.009z"/>
<path fill="#EB6874" d="M924.76,414.256c0.692,18.729-37.178,41.051-55.864,29.795c-7.71-13.057-18.999-33.86-34.576-48.891
	c3.03-20.482,49.17-45.941,67.864-37.045C903.486,380.762,909.632,387.779,924.76,414.256z"/>
<path fill="#E56373" d="M834.488,394.22l-0.171,0.937c21.713,9.927,67.411-16.884,67.866-37.041
	C883.774,349.357,838.751,373.911,834.488,394.22z"/>
<polygon fill="#E8C669" points="914.538,473.938 913.486,474.499 859.899,387.066 871.778,380.731 "/>
<polygon fill="#D1D1D1" points="907.447,1000 526.054,937.796 700.184,810.046 1087.602,866.226 "/>
<g>
	<polygon fill="#BDBDBD" points="580.317,923.299 705.71,832.489 1032.723,879.911 902.027,975.77 	"/>
</g>
<polygon opacity="0.2" fill="#43A2E3" enable-background="new    " points="907.447,1000 546.054,917.796 866.693,834.076 
	971.688,849.574 "/>
<path fill="#EB6874" d="M932.164,550.878c28.444,2.622,57.444,7.622,82.444-6.378c3-1,1-11,1-17c-28,3-56,2-83.896,2.457
	L932.164,550.878z"/>
<circle fill="#FFFFFF" cx="971.688" cy="540.718" r="4.256"/>
<polygon fill="#EB6874" points="931.93,556.5 938.275,621.166 978.942,643.166 1018.942,620.5 1016.263,553.933 "/>
<path fill="#E8C669" d="M895.102,373.051c-1.093-10.796-22.779-47.384-30.262-50.567c-13.917-5.919-40.238,8.119-43.073,22.973
	c-1.545,8.099,21.21,45.393,29.607,51.38C867.051,394.6,885.304,384.367,895.102,373.051z"/>
<path fill="#F4DA73" d="M621.968,241.158c-22.896,147.357,233.24,167.546,268.186,120.351
	c-8.544-29.009-43.544-94.009-78.605-198.818"/>
<path fill="#040504" d="M654.749,431.138l0.828-3.298c0.152,0.026,15.17,2.667,25.842-8.498c2.789-2.921,5.091-6.579,6.836-10.874
	c3.369-8.303,4.862-16.948,6.179-24.579c1.773-10.262,3.303-19.118,8.669-24.731c12.153-12.717,26.799-8.845,32.587,1.815
	C746.99,381.795,688.632,438.987,654.749,431.138z"/>
<path fill="#040504" d="M823.866,401.452l-2.239-2.561c-0.119,0.094-12.296,9.27-26.87,4.165c-3.815-1.333-7.525-3.549-11.029-6.585
	c-6.773-5.864-12.033-12.892-16.666-19.091c-6.24-8.337-11.627-15.533-18.957-18.097c-16.602-5.812-27.895,4.288-28.208,16.416
	C719.283,399.386,796.442,422.449,823.866,401.452z"/>
<path fill="#F4DA73" d="M744.807,351.491c-2.322,14.605-58.032,49.185-74.618,46.547c-16.587-2.638,24.712-38.999,27.035-53.603
	L744.807,351.491z"/>
<ellipse transform="matrix(-0.9966 0.0826 -0.0826 -0.9966 1391.5819 619.5657)" fill="#040504" cx="682.969" cy="338.581" rx="9.088" ry="6.447"/>
<ellipse transform="matrix(-0.9966 0.0826 -0.0826 -0.9966 1505.1034 595.0516)" fill="#040504" cx="740.238" cy="328.673" rx="9.088" ry="6.447"/>
<path fill="#F4DA73" d="M861.254,263.038c-6.295,7.855-14.878,11.447-23.357,4.675c-8.478-6.765-11.482-29.235-5.189-37.086
	c6.296-7.857,16.114-0.835,24.592,5.936C865.778,243.33,867.547,255.186,861.254,263.038z"/>
<path fill="#040504" d="M544.484,239.217c21.773,74.776,97.485,81.792,179.633,51.824c82.151-29.969,139.627-85.575,117.844-160.351
	C805.49,5.435,737.924,18.87,653.801,49.559C573.634,78.804,508.007,113.961,544.484,239.217z"/>
<path fill="#040504" d="M684.237,146.584c1.611,5.362,7.459,5.829,13.841,3.635c6.383-2.195,10.88-6.219,9.27-11.581
	c-1.611-5.362-8.597-8.387-14.978-6.192C685.987,134.64,682.626,141.222,684.237,146.584z"/>
<path fill="#E56373" d="M972.183,894.5l51.385,15.322l46.007-449.016c0,0-22.847-6.793-34.807,8.511
	C959.04,493.447,972.183,894.5,972.183,894.5z"/>
<path fill="#E56373" d="M884.897,605.923l87.106,300.002l57.698,2.416l-21.176-16.449L924.609,581.5L884.897,605.923z"/>
<path fill="#EB6874" d="M551.41,611.453c19.156-18.541,27.278-24.86,7.833-44.53c21.528,4.189,37.152,21.535,30.423,44.659
	c-2.42,7.426-5.372,14.005-11.082,19.955c-2.54,1.596-4.548,4.039-6.774,4.256c-5.298,0.967-13.923-25.467-18.854-24.508
	C552.005,611.39,551.41,611.453,551.41,611.453z"/>
<path fill="#E8C669" d="M920.909,606.86c9.936-9.53,8.846-26.124-13.438-47.732c-22.284-21.607-87.118-26.998-97.056-17.469
	c-9.937,9.53,29.863,21.716,52.153,43.329C884.852,606.596,910.974,616.388,920.909,606.86z"/>
<polygon fill="#D1D1D1" points="907.447,1000 526.054,937.796 455.573,562.908 883.193,567.088 "/>
<g>
	<polygon fill="#FFFFFF" points="606.099,740.38 614.532,795.093 668.56,768.994 	"/>
	<polygon fill="#FFFFFF" points="748.491,797.98 740.053,743.246 686.029,769.359 	"/>
	<polygon fill="#FFFFFF" points="676.07,760.441 731.793,730.562 666.442,698.07 610.486,727.945 	"/>
	<polygon fill="#FFFFFF" points="688.308,839.822 744.031,809.943 678.681,777.451 622.724,807.326 	"/>
</g>
<path fill="#E8C669" d="M840.661,552.027c-5.182-11.489-15.091-18.191-28.998-11.823c-13.907,6.368-20.231,50.838-15.05,62.328
	c5.182,11.49,14.337-11.802,28.248-18.172C838.768,577.993,845.842,563.515,840.661,552.027z"/>
<path fill="#E8C669" d="M857.661,558.027c-5.182-11.489-15.091-18.191-28.998-11.823c-13.907,6.368-20.231,50.838-15.05,62.328
	c5.182,11.49,20.614-35.997,34.525-42.366C856.739,567.637,862.842,569.515,857.661,558.027z"/>
<ellipse fill="#67C4F9" cx="740.609" cy="345.167" rx="3" ry="7.333"/>
<ellipse fill="#67C4F9" cx="740.609" cy="385.167" rx="3" ry="7.333"/>
<ellipse fill="#67C4F9" cx="740.609" cy="455.167" rx="3" ry="7.333"/>
<ellipse fill="#67C4F9" cx="680.609" cy="355.167" rx="3" ry="7.333"/>
<ellipse fill="#67C4F9" cx="680.609" cy="465.167" rx="3" ry="7.333"/>
<ellipse fill="#67C4F9" cx="680.609" cy="545.167" rx="3" ry="7.333"/>
</svg>
