<?xml version="1.0" encoding="UTF-8" standalone="no"?>
<!-- Created with Inkscape (http://www.inkscape.org/) -->

<svg
   xmlns:dc="http://purl.org/dc/elements/1.1/"
   xmlns:cc="http://creativecommons.org/ns#"
   xmlns:rdf="http://www.w3.org/1999/02/22-rdf-syntax-ns#"
   xmlns:svg="http://www.w3.org/2000/svg"
   xmlns="http://www.w3.org/2000/svg"
   xmlns:sodipodi="http://sodipodi.sourceforge.net/DTD/sodipodi-0.dtd"
   xmlns:inkscape="http://www.inkscape.org/namespaces/inkscape"
   width="185"
   height="45"
   viewBox="0 0 185 45"
   id="svg7843"
   version="1.1"
   inkscape:version="0.91 r13725"
   sodipodi:docname="sd5-logo-inverted.svg">
  <defs
     id="defs7845" />
  <sodipodi:namedview
     id="base"
     pagecolor="#ffffff"
     bordercolor="#666666"
     borderopacity="1.0"
     inkscape:pageopacity="0.0"
     inkscape:pageshadow="2"
     inkscape:zoom="3.959798"
     inkscape:cx="148.57143"
     inkscape:cy="76.667698"
     inkscape:document-units="px"
     inkscape:current-layer="layer1"
     showgrid="false"
     inkscape:window-width="2560"
     inkscape:window-height="1492"
     inkscape:window-x="0"
     inkscape:window-y="0"
     inkscape:window-maximized="1"
     units="px" />
  <metadata
     id="metadata7848">
    <rdf:RDF>
      <cc:Work
         rdf:about="">
        <dc:format>image/svg+xml</dc:format>
        <dc:type
           rdf:resource="http://purl.org/dc/dcmitype/StillImage" />
        <dc:title></dc:title>
      </cc:Work>
    </rdf:RDF>
  </metadata>
  <g
     inkscape:label="Layer 1"
     inkscape:groupmode="layer"
     id="layer1"
     transform="translate(0,-1007.3622)">
    <rect
       y="1007.3622"
       x="4.9999999e-06"
       height="45.883873"
       width="185.31001"
       id="rect6409-6-8-8-7-6-4"
       style="opacity:1;fill:#1a1a1a;fill-opacity:1;stroke:#ffffff;stroke-width:0;stroke-linecap:square;stroke-miterlimit:4;stroke-dasharray:none;stroke-opacity:1" />
    <g
       id="g7809"
       transform="matrix(0.70980573,0,0,0.70980573,-269.60224,2203.0642)">
      <g
         id="flowRoot3757-07-1-0-5-4-5-0-3-1-0-0-5-0"
         style="font-style:normal;font-weight:normal;font-size:10px;line-height:125%;font-family:Sans;letter-spacing:0px;word-spacing:0px;fill:#ffffff;fill-opacity:1;stroke:none"
         transform="translate(275.2292,-1717.1004)">
        <path
           id="path7771"
           style="letter-spacing:-2px;fill:#ffffff"
           d="m 180.84516,69.158646 q 0,2.736 -1.98,4.392 -1.98,1.62 -5.076,1.62 -2.088,0 -4.356,-0.756 -2.232,-0.756 -3.96,-2.124 l 1.944,-3.132 q 3.348,2.52 6.48,2.52 1.368,0 2.16,-0.612 0.792,-0.648 0.792,-1.62 0,-1.44 -3.816,-2.592 -0.288,-0.108 -0.432,-0.144 -5.976,-1.62 -5.976,-5.4 0,-2.664 2.052,-4.248 2.088,-1.62 5.4,-1.62 3.312,0 6.264,1.944 l -1.512,2.988 q -2.34,-1.548 -5.076,-1.548 -1.44,0 -2.34,0.54 -0.9,0.504 -0.9,1.548 0,0.936 0.936,1.368 0.648,0.324 1.8,0.612 1.188,0.288 2.088,0.576 0.9,0.288 1.728,0.648 0.864,0.36 1.836,1.008 1.944,1.296 1.944,4.032 z"
           inkscape:connector-curvature="0" />
        <path
           id="path7773"
           style="letter-spacing:-2px;fill:#ffffff"
           d="m 193.67209,55.442646 q 3.852,0 6.588,2.664 2.736,2.664 2.736,7.092 0,4.428 -2.736,7.2 -2.7,2.772 -6.336,2.772 -3.6,0 -6.48,-3.168 l 0,9.864 -4.032,0 0,-26.136 4.032,0 0,3.348 q 2.376,-3.636 6.228,-3.636 z m -6.3,9.9 q 0,2.736 1.656,4.5 1.656,1.728 4.032,1.728 2.376,0 4.14,-1.728 1.764,-1.728 1.764,-4.464 0,-2.772 -1.728,-4.572 -1.728,-1.836 -4.14,-1.836 -2.412,0 -4.068,1.836 -1.656,1.8 -1.656,4.536 z"
           inkscape:connector-curvature="0" />
        <path
           id="path7775"
           style="font-style:normal;font-variant:normal;font-weight:normal;font-stretch:normal;font-size:36px;font-family:'Montserrat Alternates';-inkscape-font-specification:'Montserrat Alternates';letter-spacing:-3px;fill:#ffffff"
           d="m 213.41159,75.170646 q -3.636,0 -6.336,-2.736 -2.7,-2.736 -2.7,-7.2 0,-4.464 2.772,-7.128 2.772,-2.664 6.552,-2.664 3.78,0 6.228,3.6 l 0,-3.312 4.032,0 0,19.152 -4.032,0 0,-3.132 q -1.152,1.656 -2.952,2.556 -1.764,0.864 -3.564,0.864 z m -5.004,-9.756 q 0,2.736 1.764,4.464 1.764,1.728 4.14,1.728 2.376,0 4.032,-1.728 1.656,-1.764 1.656,-4.5 0,-2.736 -1.656,-4.572 -1.656,-1.836 -4.068,-1.836 -2.412,0 -4.14,1.836 -1.728,1.836 -1.728,4.608 z"
           inkscape:connector-curvature="0" />
        <path
           id="path7777"
           style="font-style:normal;font-variant:normal;font-weight:normal;font-stretch:normal;font-size:36px;font-family:'Montserrat Alternates';-inkscape-font-specification:'Montserrat Alternates';letter-spacing:-3px;fill:#ffffff"
           d="m 235.28309,75.170646 q -3.996,0 -6.876,-2.7 -2.88,-2.736 -2.88,-7.128 0,-4.392 2.988,-7.128 3.024,-2.772 7.344,-2.772 4.32,0 7.308,2.988 l -2.376,2.916 q -2.484,-2.16 -5.004,-2.16 -2.52,0 -4.392,1.692 -1.836,1.656 -1.836,4.32 0,2.628 1.836,4.464 1.836,1.836 4.5,1.836 2.7,0 5.076,-2.448 l 2.376,2.592 q -3.492,3.528 -8.064,3.528 z"
           inkscape:connector-curvature="0" />
        <path
           id="path7779"
           style="letter-spacing:-2px;fill:#ffffff"
           d="m 253.24128,55.442646 q 3.924,0 6.516,2.196 2.592,2.16 2.628,5.652 l 0.036,0.072 -13.968,5.868 q 1.872,2.304 5.076,2.304 3.24,0 5.328,-2.52 l 2.376,2.628 q -3.42,3.528 -8.064,3.528 -4.068,0 -6.984,-2.7 -2.916,-2.7 -2.916,-7.128 0,-3.06 1.512,-5.364 1.512,-2.34 3.744,-3.42 2.232,-1.116 4.716,-1.116 z m -6.084,9.972 q 0,0.468 0.036,0.684 l 10.62,-4.572 q -1.224,-2.376 -4.356,-2.376 -2.376,0 -4.356,1.656 -1.944,1.656 -1.944,4.608 z"
           inkscape:connector-curvature="0" />
        <path
           id="path7781"
           style="font-style:normal;font-variant:normal;font-weight:normal;font-stretch:normal;font-size:36px;font-family:'Montserrat Alternates';-inkscape-font-specification:'Montserrat Alternates';letter-spacing:-3px;fill:#ffffff"
           d="m 272.34909,75.170646 q -3.636,0 -6.336,-2.736 -2.7,-2.736 -2.7,-7.2 0,-4.464 2.772,-7.128 2.772,-2.664 6.588,-2.664 3.852,0 6.192,3.24 l 0,-10.512 4.032,0 0,26.712 -4.032,0 0,-2.88 q -2.232,3.168 -6.516,3.168 z m -5.004,-9.756 q 0,2.736 1.764,4.464 1.764,1.728 4.14,1.728 2.376,0 4.032,-1.728 1.656,-1.764 1.656,-4.5 0,-2.736 -1.656,-4.572 -1.656,-1.836 -4.068,-1.836 -2.412,0 -4.14,1.836 -1.728,1.836 -1.728,4.608 z"
           inkscape:connector-curvature="0" />
        <path
           id="path7783"
           style="letter-spacing:-2px;fill:#ffffff"
           d="m 294.43659,55.442646 q 3.924,0 6.516,2.196 2.592,2.16 2.628,5.652 l 0.036,0.072 -13.968,5.868 q 1.872,2.304 5.076,2.304 3.24,0 5.328,-2.52 l 2.376,2.628 q -3.42,3.528 -8.064,3.528 -4.068,0 -6.984,-2.7 -2.916,-2.7 -2.916,-7.128 0,-3.06 1.512,-5.364 1.512,-2.34 3.744,-3.42 2.232,-1.116 4.716,-1.116 z m -6.084,9.972 q 0,0.468 0.036,0.684 l 10.62,-4.572 q -1.224,-2.376 -4.356,-2.376 -2.376,0 -4.356,1.656 -1.944,1.656 -1.944,4.608 z"
           inkscape:connector-curvature="0" />
        <path
           id="path7785"
           style="font-style:normal;font-variant:normal;font-weight:normal;font-stretch:normal;font-size:36px;font-family:'Montserrat Alternates';-inkscape-font-specification:'Montserrat Alternates';letter-spacing:-3px;fill:#ffffff"
           d="m 314.22841,75.170646 q -3.996,0 -6.876,-2.7 -2.88,-2.736 -2.88,-7.128 0,-4.392 2.988,-7.128 3.024,-2.772 7.344,-2.772 4.32,0 7.308,2.988 l -2.376,2.916 q -2.484,-2.16 -5.004,-2.16 -2.52,0 -4.392,1.692 -1.836,1.656 -1.836,4.32 0,2.628 1.836,4.464 1.836,1.836 4.5,1.836 2.7,0 5.076,-2.448 l 2.376,2.592 q -3.492,3.528 -8.064,3.528 z"
           inkscape:connector-curvature="0" />
        <path
           id="path7787"
           style="font-style:normal;font-variant:normal;font-weight:normal;font-stretch:normal;font-size:36px;font-family:'Montserrat Alternates';-inkscape-font-specification:'Montserrat Alternates';letter-spacing:-3px;fill:#ffffff"
           d="m 327.50659,74.882646 -4.032,0 0,-26.712 4.032,0 0,15.696 7.776,-8.136 5.184,0 -7.272,7.596 7.812,11.556 -4.896,0 -5.688,-8.388 -2.916,2.952 0,5.436 z"
           inkscape:connector-curvature="0" />
      </g>
      <path
         style="opacity:1;fill:#ffffff;fill-opacity:1;stroke:none;stroke-width:3;stroke-miterlimit:4;stroke-dasharray:none;stroke-opacity:1"
         d="m 419.30039,-1669.22 c -0.83723,0 -14.08139,7.648 -14.5,8.3731 -0.41861,0.725 -0.41861,16.0191 0,16.7441 0.41861,0.7251 13.66277,8.3731 14.5,8.3731 0.83722,0 14.08334,-7.648 14.50195,-8.3731 0.41861,-0.725 0.41861,-16.0191 0,-16.7441 -0.41861,-0.7251 -13.66473,-8.3731 -14.50195,-8.3731 z m 11.14843,8.2676 a 14.016884,14.016884 0 0 1 1.75391,3.0332 l -9.39648,5.4395 9.42187,5.4238 a 14.016884,14.016884 0 0 1 -1.75977,3.0273 l -11.1621,-6.4258 -11.15235,6.4571 a 14.016884,14.016884 0 0 1 -1.75195,-3.0313 l 9.39844,-5.4433 -9.42188,-5.4239 a 14.016884,14.016884 0 0 1 1.76172,-3.0254 l 11.16016,6.4239 11.14843,-6.4551 z"
         id="path4358-4-6-6-5-8-4-8-2-5-6-8-6-3-9-4-7-5-6-2-4-0-9-6-5-2-5-9-5"
         inkscape:connector-curvature="0" />
    </g>
  </g>
</svg>
