<?xml version="1.0" encoding="UTF-8" standalone="no"?>
<!-- Created with Inkscape (http://www.inkscape.org/) -->

<svg
   xmlns:dc="http://purl.org/dc/elements/1.1/"
   xmlns:cc="http://creativecommons.org/ns#"
   xmlns:rdf="http://www.w3.org/1999/02/22-rdf-syntax-ns#"
   xmlns:svg="http://www.w3.org/2000/svg"
   xmlns="http://www.w3.org/2000/svg"
   xmlns:sodipodi="http://sodipodi.sourceforge.net/DTD/sodipodi-0.dtd"
   xmlns:inkscape="http://www.inkscape.org/namespaces/inkscape"
   width="81.731232mm"
   height="17.370247mm"
   viewBox="0 0 81.731232 17.370247"
   version="1.1"
   id="svg2651"
   inkscape:version="0.92.4 (5da689c313, 2019-01-14)"
   sodipodi:docname="sd6-logo-black.svg">
  <defs
     id="defs2645" />
  <sodipodi:namedview
     id="base"
     pagecolor="#ffffff"
     bordercolor="#666666"
     borderopacity="1.0"
     inkscape:pageopacity="0.0"
     inkscape:pageshadow="2"
     inkscape:zoom="2.8"
     inkscape:cx="80.852573"
     inkscape:cy="-16.110417"
     inkscape:document-units="mm"
     inkscape:current-layer="layer1"
     showgrid="false"
     fit-margin-top="0"
     fit-margin-left="0"
     fit-margin-right="0"
     fit-margin-bottom="0"
     inkscape:window-width="2560"
     inkscape:window-height="1376"
     inkscape:window-x="0"
     inkscape:window-y="27"
     inkscape:window-maximized="1" />
  <metadata
     id="metadata2648">
    <rdf:RDF>
      <cc:Work
         rdf:about="">
        <dc:format>image/svg+xml</dc:format>
        <dc:type
           rdf:resource="http://purl.org/dc/dcmitype/StillImage" />
        <dc:title></dc:title>
      </cc:Work>
    </rdf:RDF>
  </metadata>
  <g
     inkscape:label="Layer 1"
     inkscape:groupmode="layer"
     id="layer1"
     transform="translate(-29.059958,-86.19285)">
    <g
       id="g3248">
      <path
         inkscape:connector-curvature="0"
         id="path1681-6-5-3-7-4-9-2-0-2-9-7"
         d="m 36.544922,86.212891 c -0.792105,0.07526 -1.553632,0.368078 -2.179688,0.99414 -0.967242,0.967233 -1.023215,2.24006 -0.822265,3.46875 -1.228429,-0.200703 -2.499819,-0.144769 -3.466797,0.822266 -1.252082,1.252133 -1.178244,3.043412 -0.677734,4.544922 0.500509,1.50151 1.477937,2.995513 2.832031,4.349611 1.354102,1.3541 2.848091,2.33152 4.349609,2.83203 1.501518,0.50051 3.292795,0.57437 4.544922,-0.67773 0.9673,-0.96727 1.023249,-2.24001 0.822266,-3.468755 1.228416,0.200714 2.499803,0.146691 3.466796,-0.820313 1.252124,-1.252112 1.17824,-3.045353 0.677735,-4.546874 -0.500505,-1.501522 -1.477926,-2.995502 -2.832031,-4.34961 -1.354109,-1.354105 -2.848087,-2.329573 -4.34961,-2.830078 -0.750761,-0.250253 -1.57313,-0.393617 -2.365234,-0.318359 z m 0.251953,3.427734 c -0.06232,0.06232 0.187775,-0.12686 1.025391,0.152344 0.837615,0.279204 1.980359,0.976455 3.005859,2.001953 1.025498,1.0255 1.720796,2.16629 2,3.003906 0.279204,0.837616 0.09198,1.087707 0.154297,1.025391 0.06232,-0.06232 -0.187775,0.124907 -1.025391,-0.154297 -0.817005,-0.272334 -1.926016,-0.966798 -2.93164,-1.951172 -0.02107,-0.02133 -0.03343,-0.04515 -0.05469,-0.06641 -0.02194,-0.02194 -0.04635,-0.0349 -0.06836,-0.05664 -0.984356,-1.005615 -1.678841,-2.112692 -1.951172,-2.929687 -0.279204,-0.837616 -0.09198,-1.087708 -0.154297,-1.025391 z m -4.289063,4.289063 c -0.06231,0.06232 0.187774,-0.124903 1.025391,0.154296 0.81575,0.271911 1.923337,0.965368 2.927735,1.947266 0.02276,0.02306 0.03561,0.04929 0.05859,0.07227 0.023,0.023 0.04918,0.03581 0.07227,0.05859 0.981898,1.004395 1.67535,2.111982 1.947265,2.927735 0.279205,0.837619 0.09198,1.087705 0.154297,1.025385 0.06232,-0.0623 -0.187772,0.12492 -1.02539,-0.154291 -0.837619,-0.27921 -1.980364,-0.974504 -3.00586,-2 -1.025488,-1.025491 -1.720791,-2.168245 -2,-3.00586 -0.279208,-0.837615 -0.09198,-1.087708 -0.154297,-1.02539 z"
         style="color:#000000;font-style:normal;font-variant:normal;font-weight:normal;font-stretch:normal;font-size:medium;line-height:normal;font-family:sans-serif;font-variant-ligatures:normal;font-variant-position:normal;font-variant-caps:normal;font-variant-numeric:normal;font-variant-alternates:normal;font-feature-settings:normal;text-indent:0;text-align:start;text-decoration:none;text-decoration-line:none;text-decoration-style:solid;text-decoration-color:#000000;letter-spacing:normal;word-spacing:normal;text-transform:none;writing-mode:lr-tb;direction:ltr;text-orientation:mixed;dominant-baseline:auto;baseline-shift:baseline;text-anchor:start;white-space:normal;shape-padding:0;clip-rule:nonzero;display:inline;overflow:visible;visibility:visible;opacity:1;isolation:auto;mix-blend-mode:normal;color-interpolation:sRGB;color-interpolation-filters:linearRGB;solid-color:#000000;solid-opacity:1;vector-effect:none;fill:#000000;fill-opacity:1;fill-rule:nonzero;stroke:none;stroke-width:3.4395833;stroke-linecap:butt;stroke-linejoin:round;stroke-miterlimit:4;stroke-dasharray:none;stroke-dashoffset:37.79527664;stroke-opacity:1;color-rendering:auto;image-rendering:auto;shape-rendering:auto;text-rendering:auto;enable-background:accumulate" />
      <g
         id="g2614"
         transform="matrix(0.26458333,0,0,0.26458333,-523.78744,61.714265)">
        <g
           id="flowRoot1610-0-6-8-1-1"
           style="font-style:normal;font-variant:normal;font-weight:800;font-stretch:normal;font-size:16.00038528px;line-height:1.25;font-family:Inter;-inkscape-font-specification:'Inter, Ultra-Bold';font-variant-ligatures:normal;font-variant-caps:normal;font-variant-numeric:normal;font-feature-settings:normal;text-align:start;letter-spacing:0px;word-spacing:0px;writing-mode:lr-tb;text-anchor:start;opacity:1;vector-effect:none;fill:#000000;fill-opacity:1;stroke:none;stroke-width:0.37800002;stroke-linecap:butt;stroke-linejoin:round;stroke-miterlimit:4;stroke-dasharray:none;stroke-dashoffset:37.79527664;stroke-opacity:1"
           transform="matrix(2.6369365,0,0,2.6369365,2045.0224,86.079903)"
           aria-label="Spacedeck">
          <path
             id="path3214"
             style="font-style:normal;font-variant:normal;font-weight:800;font-stretch:normal;font-size:16.00038528px;font-family:Inter;-inkscape-font-specification:'Inter, Ultra-Bold';font-variant-ligatures:normal;font-variant-caps:normal;font-variant-numeric:normal;font-feature-settings:normal;text-align:start;writing-mode:lr-tb;text-anchor:start;fill:#000000;fill-opacity:1;stroke:none"
             d="m 52.795627,11.002199 h 2.693247 C 55.466146,8.82601 53.73315,7.3543837 51.028539,7.3543837 c -2.659155,0 -4.573974,1.4488985 -4.556928,3.6137233 -0.0057,1.767088 1.232985,2.76143 3.244397,3.221669 l 1.215938,0.284097 c 1.27844,0.295462 1.852317,0.642061 1.863681,1.295486 -0.01136,0.710244 -0.676152,1.204575 -1.806861,1.204575 -1.244349,0 -2.06255,-0.57956 -2.125052,-1.698905 h -2.693246 c 0.03409,2.721656 1.926182,4.022824 4.852389,4.022824 2.897797,0 4.613748,-1.312532 4.625112,-3.522812 -0.01136,-1.857999 -1.267076,-2.99439 -3.562586,-3.500084 l -1.000024,-0.227278 c -1.056844,-0.227279 -1.727315,-0.57956 -1.704587,-1.272758 0.0057,-0.636379 0.55115,-1.0966177 1.642085,-1.0966177 1.096618,0 1.698905,0.4943297 1.77277,1.3238957 z"
             inkscape:connector-curvature="0" />
          <path
             id="path3216"
             style="font-style:normal;font-variant:normal;font-weight:800;font-stretch:normal;font-size:16.00038528px;font-family:Inter;-inkscape-font-specification:'Inter, Ultra-Bold';font-variant-ligatures:normal;font-variant-caps:normal;font-variant-numeric:normal;font-feature-settings:normal;text-align:start;writing-mode:lr-tb;text-anchor:start;fill:#000000;fill-opacity:1;stroke:none"
             d="m 57.068458,22.422928 h 2.778476 v -4.687613 h 0.05682 c 0.352281,0.806838 1.136391,1.53981 2.454605,1.53981 1.931864,0 3.48872,-1.5114 3.48872,-4.483062 0,-3.07962 -1.647767,-4.483063 -3.471674,-4.483063 -1.380715,0 -2.136415,0.806838 -2.471651,1.607994 h -0.08523 v -1.494355 h -2.750066 z m 2.721656,-7.636547 c 0,-1.426171 0.590923,-2.306874 1.607993,-2.306874 1.028434,0 1.59663,0.903431 1.59663,2.306874 0,1.409125 -0.568196,2.323919 -1.59663,2.323919 -1.01707,0 -1.607993,-0.909112 -1.607993,-2.323919 z"
             inkscape:connector-curvature="0" />
          <path
             id="path3218"
             style="font-style:normal;font-variant:normal;font-weight:800;font-stretch:normal;font-size:16.00038528px;font-family:Inter;-inkscape-font-specification:'Inter, Ultra-Bold';font-variant-ligatures:normal;font-variant-caps:normal;font-variant-numeric:normal;font-feature-settings:normal;text-align:start;writing-mode:lr-tb;text-anchor:start;fill:#000000;fill-opacity:1;stroke:none"
             d="m 69.778991,19.297853 c 1.215939,0 2.056868,-0.471602 2.534152,-1.363669 h 0.06818 v 1.215938 h 2.613699 v -5.931961 c 0,-1.846635 -1.642085,-2.909161 -3.86373,-2.909161 -2.346647,0 -3.676224,1.181847 -3.897821,2.772794 l 2.562562,0.09091 c 0.119321,-0.556832 0.579559,-0.897749 1.312532,-0.897749 0.681834,0 1.113663,0.329553 1.113663,0.914794 v 0.02841 c 0,0.534104 -0.57956,0.647743 -2.068232,0.778428 -1.767088,0.147731 -3.244396,0.801156 -3.244396,2.73302 0,1.727315 1.198892,2.568244 2.869387,2.568244 z m 0.857975,-1.818226 c -0.642061,0 -1.096617,-0.306825 -1.096617,-0.886384 0,-0.562514 0.443193,-0.903431 1.232984,-1.022752 0.517058,-0.07387 1.153437,-0.187505 1.465945,-0.352282 v 0.829566 c 0,0.852293 -0.715927,1.431852 -1.602312,1.431852 z"
             inkscape:connector-curvature="0" />
          <path
             id="path3220"
             style="font-style:normal;font-variant:normal;font-weight:800;font-stretch:normal;font-size:16.00038528px;font-family:Inter;-inkscape-font-specification:'Inter, Ultra-Bold';font-variant-ligatures:normal;font-variant-caps:normal;font-variant-numeric:normal;font-feature-settings:normal;text-align:start;writing-mode:lr-tb;text-anchor:start;fill:#000000;fill-opacity:1;stroke:none"
             d="m 80.767893,19.314899 c 2.454605,0 3.977369,-1.426171 4.051234,-3.585314 h -2.596653 c -0.102275,0.926159 -0.659107,1.431853 -1.420489,1.431853 -0.977296,0 -1.613675,-0.823883 -1.613675,-2.375057 0,-1.53981 0.642061,-2.363693 1.613675,-2.363693 0.795474,0 1.312532,0.539785 1.420489,1.431852 h 2.596653 c -0.0625,-2.147779 -1.630721,-3.54554 -4.056916,-3.54554 -2.744384,0 -4.403515,1.82959 -4.403515,4.505791 0,2.664836 1.647767,4.500108 4.409197,4.500108 z"
             inkscape:connector-curvature="0" />
          <path
             id="path3222"
             style="font-style:normal;font-variant:normal;font-weight:800;font-stretch:normal;font-size:16.00038528px;font-family:Inter;-inkscape-font-specification:'Inter, Ultra-Bold';font-variant-ligatures:normal;font-variant-caps:normal;font-variant-numeric:normal;font-feature-settings:normal;text-align:start;writing-mode:lr-tb;text-anchor:start;fill:#000000;fill-opacity:1;stroke:none"
             d="m 90.336304,19.314899 c 2.289828,0 3.795546,-1.107981 4.113736,-2.823932 l -2.551198,-0.07387 c -0.215914,0.579559 -0.78411,0.892067 -1.5114,0.892067 -1.068208,0 -1.727315,-0.710245 -1.727315,-1.778452 v -0.07386 h 5.818322 v -0.693199 c 0,-2.875069 -1.750042,-4.454653 -4.227374,-4.454653 -2.636427,0 -4.32965,1.806862 -4.32965,4.511473 0,2.795521 1.670495,4.494426 4.414879,4.494426 z m -1.676177,-5.471723 c 0.03977,-0.869339 0.727291,-1.528446 1.647767,-1.528446 0.914795,0 1.573902,0.636379 1.585266,1.528446 z"
             inkscape:connector-curvature="0" />
          <path
             id="path3224"
             style="font-style:normal;font-variant:normal;font-weight:800;font-stretch:normal;font-size:16.00038528px;font-family:Inter;-inkscape-font-specification:'Inter, Ultra-Bold';font-variant-ligatures:normal;font-variant-caps:normal;font-variant-numeric:normal;font-feature-settings:normal;text-align:start;writing-mode:lr-tb;text-anchor:start;fill:#000000;fill-opacity:1;stroke:none"
             d="m 99.10072,19.275125 c 1.31821,0 2.10232,-0.732972 2.4546,-1.53981 h 0.0852 v 1.414807 h 2.75007 V 7.5134784 h -2.77848 v 4.4035156 h -0.0568 C 101.22577,11.115838 100.46439,10.309 99.089356,10.309 c -1.823907,0 -3.477356,1.403443 -3.477356,4.483063 0,2.971662 1.562537,4.483062 3.48872,4.483062 z m 0.96593,-2.164825 c -1.028432,0 -1.602309,-0.914794 -1.602309,-2.323919 0,-1.403443 0.568196,-2.306874 1.602309,-2.306874 1.01707,0 1.608,0.880703 1.608,2.306874 0,1.414807 -0.59661,2.323919 -1.608,2.323919 z"
             inkscape:connector-curvature="0" />
          <path
             id="path3226"
             style="font-style:normal;font-variant:normal;font-weight:800;font-stretch:normal;font-size:16.00038528px;font-family:Inter;-inkscape-font-specification:'Inter, Ultra-Bold';font-variant-ligatures:normal;font-variant-caps:normal;font-variant-numeric:normal;font-feature-settings:normal;text-align:start;writing-mode:lr-tb;text-anchor:start;fill:#000000;fill-opacity:1;stroke:none"
             d="m 110.24303,19.314899 c 2.28983,0 3.79555,-1.107981 4.11374,-2.823932 l -2.5512,-0.07387 c -0.21591,0.579559 -0.78411,0.892067 -1.5114,0.892067 -1.06821,0 -1.72731,-0.710245 -1.72731,-1.778452 v -0.07386 h 5.81832 v -0.693199 c 0,-2.875069 -1.75004,-4.454653 -4.22737,-4.454653 -2.63643,0 -4.32965,1.806862 -4.32965,4.511473 0,2.795521 1.67049,4.494426 4.41487,4.494426 z m -1.67617,-5.471723 c 0.0398,-0.869339 0.72729,-1.528446 1.64777,-1.528446 0.91479,0 1.5739,0.636379 1.58526,1.528446 z"
             inkscape:connector-curvature="0" />
          <path
             id="path3228"
             style="font-style:normal;font-variant:normal;font-weight:800;font-stretch:normal;font-size:16.00038528px;font-family:Inter;-inkscape-font-specification:'Inter, Ultra-Bold';font-variant-ligatures:normal;font-variant-caps:normal;font-variant-numeric:normal;font-feature-settings:normal;text-align:start;writing-mode:lr-tb;text-anchor:start;fill:#000000;fill-opacity:1;stroke:none"
             d="m 119.89384,19.314899 c 2.4546,0 3.97736,-1.426171 4.05123,-3.585314 h -2.59665 c -0.10228,0.926159 -0.65911,1.431853 -1.42049,1.431853 -0.9773,0 -1.61368,-0.823883 -1.61368,-2.375057 0,-1.53981 0.64206,-2.363693 1.61368,-2.363693 0.79547,0 1.31253,0.539785 1.42049,1.431852 h 2.59665 c -0.0625,-2.147779 -1.63072,-3.54554 -4.05692,-3.54554 -2.74438,0 -4.40351,1.82959 -4.40351,4.505791 0,2.664836 1.64777,4.500108 4.4092,4.500108 z"
             inkscape:connector-curvature="0" />
          <path
             id="path3230"
             style="font-style:normal;font-variant:normal;font-weight:800;font-stretch:normal;font-size:16.00038528px;font-family:Inter;-inkscape-font-specification:'Inter, Ultra-Bold';font-variant-ligatures:normal;font-variant-caps:normal;font-variant-numeric:normal;font-feature-settings:normal;text-align:start;writing-mode:lr-tb;text-anchor:start;fill:#000000;fill-opacity:1;stroke:none"
             d="m 125.3826,19.150122 h 2.77848 v -2.619381 l 0.56251,-0.681835 2.0796,3.301216 h 3.2103 l -3.22167,-4.926255 3.09667,-3.801228 h -3.1478 l -2.45461,3.125076 h -0.125 V 7.5134784 h -2.77848 z"
             inkscape:connector-curvature="0" />
        </g>
        <path
           d="m 2146.72,133.51812 a 23.030019,11.514995 45 0 1 -24.427,-8.1423 23.030019,11.514995 45 0 1 -8.1423,-24.427 23.030019,11.514995 45 0 1 24.427,8.1423 23.030019,11.514995 45 0 1 8.1423,24.427 z m -16.2137,16.2138 a 23.030019,11.514995 45 0 1 -24.427,-8.1424 23.030019,11.514995 45 0 1 -8.1424,-24.4269 23.030019,11.514995 45 0 1 24.4271,8.1422 23.030019,11.514995 45 0 1 8.1423,24.4271 z"
           style="opacity:1;vector-effect:none;fill:none;fill-opacity:1;stroke:#000000;stroke-width:0;stroke-linecap:butt;stroke-linejoin:round;stroke-miterlimit:4;stroke-dasharray:none;stroke-dashoffset:37.79527664;stroke-opacity:1"
           id="path1681-6-5-3-7-4-9-2-0-2-7-6"
           inkscape:connector-curvature="0" />
      </g>
    </g>
  </g>
</svg>
