<?xml version="1.0" encoding="utf-8"?>
<!-- Generator: Adobe Illustrator 17.0.2, SVG Export Plug-In . SVG Version: 6.00 Build 0)  -->
<!DOCTYPE svg PUBLIC "-//W3C//DTD SVG 1.1//EN" "http://www.w3.org/Graphics/SVG/1.1/DTD/svg11.dtd">
<svg version="1.1" id="Layer_1" xmlns="http://www.w3.org/2000/svg" xmlns:xlink="http://www.w3.org/1999/xlink" x="0px" y="0px"
	 width="118.807px" height="26.558px" viewBox="13 11.299 118.807 26.558" enable-background="new 13 11.299 118.807 26.558"
	 xml:space="preserve">
<path fill="#FFFFFF" d="M52.333,22.961c-2.275-0.54-2.814-0.942-2.814-1.853v-0.035c0-0.774,0.708-1.397,1.921-1.397
	c1.08,0,2.143,0.422,3.203,1.214l1.113-1.566c-1.197-0.963-2.562-1.483-4.281-1.483c-2.342,0-4.027,1.398-4.027,3.42v0.033
	c0,2.175,1.416,2.917,3.927,3.522c2.189,0.508,2.663,0.963,2.663,1.807v0.03c0,0.879-0.811,1.483-2.091,1.483
	c-1.448,0-2.596-0.556-3.724-1.536l-1.246,1.488c1.416,1.26,3.118,1.884,4.921,1.884c2.476,0,4.214-1.312,4.214-3.522v-0.032
	C56.111,24.462,54.827,23.567,52.333,22.961z"/>
<path fill="#FFFFFF" d="M62.313,20.72c-1.449,0-2.376,0.74-3.033,1.669v-1.482h-2.039V32.5h2.039v-4.078
	c0.623,0.825,1.549,1.568,3.033,1.568c2.106,0,4.129-1.67,4.129-4.618v-0.036C66.443,22.372,64.403,20.72,62.313,20.72z
	 M64.37,25.371c0,1.753-1.146,2.848-2.545,2.848c-1.383,0-2.597-1.144-2.597-2.848v-0.036c0-1.699,1.214-2.846,2.597-2.846
	c1.384,0,2.545,1.129,2.545,2.846V25.371z"/>
<path fill="#FFFFFF" d="M71.325,20.788c-1.417,0-2.378,0.284-3.355,0.724l0.541,1.603c0.81-0.337,1.549-0.557,2.543-0.557
	c1.434,0,2.209,0.675,2.209,1.939v0.216c-0.689-0.216-1.399-0.37-2.395-0.37c-2.171,0-3.672,0.944-3.672,2.866v0.034
	c0,1.787,1.484,2.748,3.15,2.748c1.366,0,2.292-0.574,2.9-1.301v1.115h1.99v-5.274c0-1.164-0.305-2.109-0.961-2.748
	C73.65,21.141,72.655,20.788,71.325,20.788z M73.297,26.6c0,1.131-1.027,1.906-2.377,1.906c-0.978,0-1.736-0.489-1.736-1.35v-0.032
	c0-0.927,0.777-1.484,2.09-1.484c0.81,0,1.501,0.152,2.022,0.355L73.297,26.6L73.297,26.6z"/>
<path fill="#FFFFFF" d="M81.052,28.219c-1.569,0-2.663-1.262-2.663-2.848v-0.034c0-1.55,1.094-2.83,2.578-2.83
	c1.014,0,1.668,0.454,2.293,1.111l1.279-1.364c-0.842-0.91-1.887-1.534-3.557-1.534c-2.681,0-4.635,2.122-4.635,4.651v0.031
	c0,2.529,1.957,4.604,4.604,4.604c1.734,0,2.762-0.691,3.639-1.668l-1.23-1.215C82.721,27.783,82.014,28.219,81.052,28.219z"/>
<path fill="#FFFFFF" d="M89.303,20.72c-2.546,0-4.349,2.09-4.349,4.636v0.032c0,2.748,1.987,4.619,4.567,4.619
	c1.636,0,2.797-0.66,3.643-1.668l-1.197-1.062c-0.711,0.692-1.418,1.062-2.414,1.062c-1.312,0-2.342-0.809-2.562-2.257h6.541
	c0.016-0.206,0.031-0.391,0.031-0.576C93.566,22.945,92.134,20.72,89.303,20.72z M86.977,24.731
	c0.187-1.384,1.062-2.344,2.309-2.344c1.348,0,2.123,1.027,2.258,2.344H86.977z"/>
<path fill="#FFFFFF" d="M101.723,22.287c-0.643-0.844-1.568-1.567-3.035-1.567c-2.123,0-4.129,1.667-4.129,4.615v0.036
	c0,2.949,2.039,4.619,4.129,4.619c1.448,0,2.375-0.742,3.035-1.669v1.482h2.037V17.5h-2.037V22.287z M101.754,25.371
	c0,1.704-1.211,2.848-2.576,2.848c-1.386,0-2.562-1.13-2.562-2.848v-0.036c0-1.768,1.163-2.846,2.562-2.846
	c1.365,0,2.576,1.129,2.576,2.846V25.371z"/>
<path fill="#FFFFFF" d="M109.105,20.72c-2.543,0-4.347,2.09-4.347,4.636v0.032c0,2.748,1.987,4.619,4.568,4.619
	c1.634,0,2.799-0.66,3.64-1.668l-1.195-1.062c-0.709,0.692-1.416,1.062-2.414,1.062c-1.312,0-2.342-0.809-2.56-2.257h6.539
	c0.015-0.206,0.032-0.391,0.032-0.576C113.371,22.945,111.939,20.72,109.105,20.72z M106.781,24.731
	c0.187-1.384,1.062-2.344,2.309-2.344c1.35,0,2.121,1.027,2.26,2.344H106.781z"/>
<path fill="#FFFFFF" d="M119.034,28.219c-1.57,0-2.665-1.262-2.665-2.848v-0.034c0-1.55,1.095-2.83,2.579-2.83
	c1.011,0,1.669,0.454,2.292,1.111l1.281-1.364c-0.842-0.91-1.889-1.534-3.556-1.534c-2.681,0-4.635,2.122-4.635,4.651v0.031
	c0,2.529,1.955,4.604,4.603,4.604c1.733,0,2.762-0.691,3.639-1.668l-1.231-1.215C120.702,27.783,119.991,28.219,119.034,28.219z"/>
<polygon fill="#FFFFFF" points="128.27,24.529 131.807,20.905 129.33,20.905 125.637,24.849 125.637,17.5 123.6,17.5 123.6,29.803 
	125.637,29.803 125.637,27.258 126.902,25.945 129.532,29.805 131.926,29.805 "/>
<g>
	<polygon fill="#FFFFFF" points="36,19.009 26.355,24.578 36,30.147 	"/>
	<polygon fill="#FFFFFF" points="24.5,23.507 35.073,17.403 24.5,11.299 13.927,17.403 	"/>
	<polygon fill="#FFFFFF" points="13,17.939 13,17.939 13,17.939 	"/>
	<polygon fill="#FFFFFF" points="36,17.939 36,17.939 36,17.938 	"/>
	<polygon fill="#FFFFFF" points="36,31.218 36,31.218 36,31.218 	"/>
	<polygon fill="#FFFFFF" points="24.5,25.649 13.927,31.753 24.5,37.857 35.073,31.753 	"/>
	<polygon fill="#FFFFFF" points="22.645,24.578 13,19.009 13,30.147 	"/>
</g>
</svg>
